<svg width="24" height="25" viewBox="0 0 24 25" fill="none" xmlns="http://www.w3.org/2000/svg">
<path d="M15.5 14.5H14.71L14.43 14.23C15.63 12.83 16.25 10.92 15.91 8.89C15.44 6.11 13.12 3.89 10.32 3.55C6.09001 3.03 2.53002 6.59 3.05002 10.82C3.39002 13.62 5.61002 15.94 8.39002 16.41C10.42 16.75 12.33 16.13 13.73 14.93L14 15.21V16L18.25 20.25C18.66 20.66 19.33 20.66 19.74 20.25C20.15 19.84 20.15 19.17 19.74 18.76L15.5 14.5ZM9.50002 14.5C7.01002 14.5 5.00002 12.49 5.00002 10C5.00002 7.51 7.01002 5.5 9.50002 5.5C11.99 5.5 14 7.51 14 10C14 12.49 11.99 14.5 9.50002 14.5Z" fill="#A2A2A2"/>
</svg>
